<?xml version="1.0" encoding="utf-8"?>
<!-- Generator: Adobe Illustrator 17.0.0, SVG Export Plug-In . SVG Version: 6.00 Build 0)  -->
<!DOCTYPE svg PUBLIC "-//W3C//DTD SVG 1.1//EN" "http://www.w3.org/Graphics/SVG/1.1/DTD/svg11.dtd">
<svg version="1.1" id="Layer_2" xmlns="http://www.w3.org/2000/svg" xmlns:xlink="http://www.w3.org/1999/xlink" x="0px" y="0px"
	 width="201.931px" height="291.085px" viewBox="0 0 201.931 291.085" enable-background="new 0 0 201.931 291.085"
	 xml:space="preserve">
<g id="Layer_1">
	<g>
		<path fill="#D84B38" stroke="#D84B38" stroke-miterlimit="10" d="M36.219,105.659c40.11,0,80.325-0.017,120.539,0.055
			c1.807,0.003,4.665-1.15,4.826,2.381c0.151,3.32-2.441,2.792-4.474,3.009c-9.423,1.008-18.827,2.128-27.807,5.402
			c-5.498,2.004-10.739,4.503-14.632,9.043c-1.562,1.822-2.967,2.392-5.426,1.674c-24.103-7.034-48.248-13.919-72.375-20.872
			C36.587,106.27,36.399,105.858,36.219,105.659z"/>
		<path fill="#D84B38" stroke="#D84B38" stroke-miterlimit="10" d="M75.907,130.475c1.97-1.121,4.628,0.338,4.754-2.288
			c0.081-1.674-1.89-2.319-3.282-2.881c-5.512-2.228-11.069-4.346-16.332-7.431c9.058,2.432,18.14,4.78,27.168,7.316
			c14.304,4.017,28.702,7.81,42.185,14.216c2.529,1.202,7.224,2.141,5.91,5.733c-1.197,3.272-5.364,1.795-8.328,0.911
			C110.805,140.929,93.635,135.78,75.907,130.475z"/>
		<path fill="#D84B38" stroke="#D84B38" stroke-miterlimit="10" d="M152.63,96.15c-16.809-0.098-33.604-0.056-50.413-0.063
			c-16.992-0.007-33.99-0.035-50.989,0.035c-1.313,0.007-3.419-0.976-3.721,1.411c-0.253,2.036,1.51,1.776,2.823,1.861
			c23.669,1.559,47.457-2.703,71.182,2.802c9.9,2.282,20.769,0.323,31.203,0.407c2.731,0.014,4.901,0.119,4.831-3.735
			C157.489,94.619,154.498,96.171,152.63,96.15z"/>
		<path fill="#D84B38" stroke="#D84B38" stroke-miterlimit="10" d="M103.032,86.877c11.016,0,22.032-0.025,33.048,0.022
			c2.006,0.009,4.459-0.546,4.487,2.881c0.029,3.421-2.442,2.927-4.435,2.954c-6.955,0.093-14.502,1.82-20.752-0.274
			c-15.187-5.087-30.464-1.006-45.583-2.53c-1.383-0.139-3.7,0.675-3.596-1.617c0.099-2.191,2.412-1.386,3.779-1.395
			C80.997,86.846,92.015,86.878,103.032,86.877z"/>
		<path fill="#D84B38" stroke="#D84B38" stroke-miterlimit="10" d="M124.752,80.545c-0.059,3.075-1.786,2.921-3.637,2.643
			c-4.636-0.686-9.236,0.982-14.114-2.164c-3.264-2.111-9.047-0.384-13.677-0.372c-2.897,0-5.889,0.118-8.775-0.053
			c-1.514-0.095-4.275,1.041-4.393-1.514c-0.118-2.667,2.117-1.65,3.601-1.679c5.984-0.089,10.129-0.041,17.225-0.041
			c0,0,0-0.006,0-0.018c5.913,0,13.068,0.036,19.247-0.012C122.529,77.316,124.799,77.346,124.752,80.545z"/>
		<path fill="#D84B38" stroke="#D84B38" stroke-miterlimit="10" d="M84.287,126.739c-7.789-3.729-15.93-6.399-24.386-8.129
			L84.287,126.739z"/>
		<path fill="#D84B38" stroke="#D84B38" stroke-miterlimit="10" d="M55.837,108.449c-7.161-0.871-14.322-1.742-21.483-2.613"/>
		<path fill="#D84B38" stroke="#D84B38" stroke-miterlimit="10" d="M84.287,129.642c-2.97,2.214-6.188,0.472-9.29,0.581
			L84.287,129.642z"/>
	</g>
	<g id="logo_2_">
		<path opacity="0.7" fill="none" stroke="#D84B38" stroke-width="5" stroke-miterlimit="10" d="M97.542,177.534
			c-40.733-1.73-73.956-35.53-73.956-76.689c0-42.266,34.263-76.529,76.529-76.529s76.529,34.263,76.529,76.529
			c0,40.615-30.893,74.156-70.868,76.689"/>
		<path opacity="0.7" fill="none" stroke="#D84B38" stroke-width="5" stroke-miterlimit="10" d="M106.1,188.478
			c45.687-2.895,80.992-41.227,80.992-87.645c0-48.304-39.158-87.462-87.462-87.462S12.168,52.53,12.168,100.834
			c0,47.039,37.969,85.667,84.521,87.645"/>
		<path opacity="0.7" fill="none" stroke="#D84B38" stroke-width="5" stroke-miterlimit="10" d="M107.821,199.892"/>
		<path opacity="0.7" fill="none" stroke="#D84B38" stroke-width="5" stroke-miterlimit="10" d="M96.857,277.986v5.497
			c0,0,0.698,3.737-10.319,3.737c-9.456,0-30.267,0.055-74.37,0.106"/>
		<path opacity="0.7" fill="none" stroke="#D84B38" stroke-width="5" stroke-miterlimit="10" d="M96.901,272.723"/>
		
			<line opacity="0.7" fill="none" stroke="#D84B38" stroke-width="5" stroke-miterlimit="10" x1="96.857" y1="227.117" x2="96.857" y2="230.406"/>
		
			<line opacity="0.7" fill="none" stroke="#D84B38" stroke-width="5" stroke-miterlimit="10" x1="96.857" y1="225.144" x2="96.857" y2="227.117"/>
		<path opacity="0.7" fill="none" stroke="#D84B38" stroke-width="5" stroke-miterlimit="10" d="M105.656,230.406v-25.517v-2.96
			l-0.235,1.173c0,0-0.317-3.487,5.531-4.09c49.213-5.07,88.479-47.588,88.479-98.154c0-54.342-44.1-98.358-98.442-98.358
			S2.5,46.625,2.5,100.967c0,51.115,39.649,93.537,89.549,98.375v0.036c0.386,0.012,0.773-0.014,1.16-0.003
			c0.077,0.002-0.019-0.019,0.055-0.012c1.856,0.174,3.593,0.417,3.593,1.949v2.952v20.88"/>
		<path opacity="0.7" fill="none" stroke="#D84B38" stroke-width="5" stroke-miterlimit="10" d="M105.656,227.337"/>
		<path opacity="0.7" fill="none" stroke="#D84B38" stroke-width="5" stroke-miterlimit="10" d="M105.656,233.037"/>
		<path opacity="0.7" fill="none" stroke="#D84B38" stroke-width="5" stroke-miterlimit="10" d="M192.6,288.585
			c0,0-59.069-0.568-76.466-0.568c-11.017,0-10.478-3.387-10.478-3.387l0.016-6.645"/>
		<path opacity="0.7" fill="none" stroke="#D84B38" stroke-width="5" stroke-miterlimit="10" d="M97.459,166.59
			c-34.828-1.639-62.562-30.395-62.562-65.628c0-36.286,29.416-65.702,65.702-65.702s65.702,29.416,65.702,65.702
			c0,34.636-26.801,63.012-60.795,65.521"/>
	</g>
	<g id="text2_1_">
		<path fill="#D84B38" stroke="#D84B38" stroke-miterlimit="10" d="M27.796,236.256v5.794h0.2c1.109-2.131,2.564-3.796,4.362-4.995
			c1.798-1.199,4.096-1.798,6.893-1.798c2.264,0,4.318,0.556,6.16,1.665c1.842,1.111,3.074,2.797,3.696,5.062
			c1.021-2.264,2.531-3.951,4.529-5.062c1.998-1.109,4.129-1.665,6.393-1.665c7.592,0,11.388,4.019,11.388,12.054v23.309h-4.196
			V247.51c0-2.841-0.599-5.005-1.798-6.493c-1.199-1.486-3.308-2.23-6.327-2.23c-1.821,0-3.33,0.344-4.529,1.032
			c-1.199,0.689-2.154,1.609-2.864,2.764c-0.711,1.155-1.21,2.476-1.498,3.963c-0.289,1.488-0.433,3.03-0.433,4.628v19.447h-4.196
			v-23.309c0-1.154-0.123-2.253-0.366-3.297c-0.245-1.042-0.644-1.953-1.199-2.73c-0.555-0.777-1.299-1.387-2.231-1.831
			c-0.933-0.444-2.065-0.666-3.397-0.666c-1.776,0-3.319,0.323-4.628,0.965c-1.31,0.644-2.376,1.532-3.197,2.664
			c-0.822,1.132-1.432,2.464-1.831,3.996c-0.399,1.532-0.599,3.208-0.599,5.029v19.18h-4.196v-34.364H27.796z"/>
		<path fill="#D84B38" stroke="#D84B38" stroke-miterlimit="10" d="M80.008,242.183c0.71-1.465,1.675-2.664,2.897-3.596
			c1.221-0.932,2.653-1.62,4.296-2.065c1.642-0.443,3.463-0.666,5.461-0.666c1.509,0,3.019,0.145,4.529,0.433
			c1.509,0.29,2.863,0.832,4.062,1.632s2.175,1.921,2.931,3.363c0.754,1.444,1.132,3.319,1.132,5.628v18.247
			c0,1.688,0.821,2.531,2.464,2.531c0.488,0,0.932-0.088,1.332-0.267v3.53c-0.489,0.089-0.922,0.156-1.299,0.199
			c-0.378,0.045-0.855,0.067-1.432,0.067c-1.065,0-1.921-0.144-2.564-0.433c-0.644-0.289-1.144-0.7-1.498-1.232
			c-0.356-0.532-0.589-1.165-0.699-1.898c-0.111-0.733-0.166-1.542-0.166-2.431h-0.133c-0.756,1.11-1.521,2.098-2.298,2.964
			c-0.777,0.865-1.643,1.588-2.598,2.164c-0.955,0.578-2.043,1.021-3.263,1.332c-1.222,0.31-2.676,0.466-4.362,0.466
			c-1.598,0-3.097-0.189-4.495-0.566c-1.399-0.376-2.62-0.976-3.663-1.798c-1.044-0.821-1.865-1.865-2.464-3.13
			c-0.6-1.265-0.899-2.764-0.899-4.495c0-2.398,0.533-4.272,1.599-5.627c1.065-1.354,2.474-2.386,4.229-3.097
			c1.753-0.709,3.73-1.209,5.927-1.498c2.197-0.288,4.429-0.565,6.693-0.832c0.888-0.088,1.665-0.199,2.331-0.333
			c0.666-0.133,1.221-0.366,1.665-0.699c0.444-0.333,0.788-0.787,1.032-1.365c0.244-0.577,0.366-1.332,0.366-2.265
			c0-1.42-0.233-2.586-0.699-3.496c-0.466-0.909-1.11-1.631-1.931-2.164c-0.822-0.532-1.776-0.898-2.864-1.099
			c-1.088-0.199-2.254-0.299-3.496-0.299c-2.664,0-4.84,0.632-6.527,1.897c-1.688,1.266-2.575,3.297-2.664,6.094h-4.196
			C78.876,245.38,79.297,243.648,80.008,242.183z M100.986,252.439c-0.267,0.489-0.777,0.845-1.532,1.066
			c-0.755,0.223-1.421,0.378-1.998,0.467c-1.776,0.311-3.608,0.589-5.494,0.832c-1.888,0.245-3.608,0.61-5.161,1.099
			c-1.555,0.489-2.83,1.188-3.829,2.098c-0.999,0.911-1.498,2.21-1.498,3.896c0,1.066,0.21,2.009,0.633,2.83
			c0.421,0.822,0.988,1.531,1.698,2.131c0.71,0.599,1.532,1.054,2.464,1.365c0.933,0.311,1.886,0.467,2.864,0.467
			c1.598,0,3.13-0.244,4.595-0.733c1.465-0.488,2.741-1.199,3.829-2.131c1.087-0.932,1.953-2.065,2.598-3.397
			c0.643-1.332,0.966-2.841,0.966-4.528v-5.461H100.986z"/>
		<path fill="#D84B38" stroke="#D84B38" stroke-miterlimit="10" d="M117.791,236.256v8.058h0.133c1.066-2.797,2.719-4.95,4.961-6.46
			c2.242-1.509,4.917-2.197,8.025-2.064v4.195c-1.909-0.088-3.641,0.167-5.195,0.766c-1.554,0.599-2.897,1.455-4.029,2.564
			c-1.132,1.11-2.009,2.431-2.63,3.963c-0.622,1.531-0.932,3.208-0.932,5.028v18.314h-4.196v-34.364H117.791z"/>
		<path fill="#D84B38" stroke="#D84B38" stroke-miterlimit="10" d="M137.237,223.07v29.835l19.046-16.649h5.594l-14.651,12.72
			l15.65,21.644h-5.261l-13.586-18.714l-6.793,5.661v13.053h-4.196v-47.55H137.237z"/>
		<path fill="#D84B38" stroke="#D84B38" stroke-miterlimit="10" d="M170.18,236.256v8.058h0.133c1.066-2.797,2.719-4.95,4.961-6.46
			c2.242-1.509,4.917-2.197,8.025-2.064v4.195c-1.909-0.088-3.641,0.167-5.195,0.766c-1.554,0.599-2.897,1.455-4.029,2.564
			c-1.132,1.11-2.009,2.431-2.63,3.963c-0.622,1.531-0.932,3.208-0.932,5.028v18.314h-4.196v-34.364H170.18z"/>
	</g>
</g>
</svg>
